<?xml version="1.0" encoding="utf-8"?>
<!-- Generator: Adobe Illustrator 22.1.0, SVG Export Plug-In . SVG Version: 6.00 Build 0)  -->
<svg version="1.1" id="delivery-logos" xmlns="http://www.w3.org/2000/svg" xmlns:xlink="http://www.w3.org/1999/xlink" x="0px"
	 y="0px" viewBox="0 0 132 42" style="enable-background:new 0 0 132 42;" xml:space="preserve">
<style type="text/css">
	.st0{fill:#FFCB01;stroke:#FFCB01;stroke-linecap:round;stroke-linejoin:round;stroke-miterlimit:10;}
	.st1{fill:#D81421;}
	.st2{fill:#341B14;stroke:#341B14;stroke-linecap:round;stroke-linejoin:round;stroke-miterlimit:10;}
	.st3{fill:#FFB406;}
</style>
<g id="dhl">
	<path class="st0" d="M56,41H6c-2.8,0-5-2.2-5-5V6c0-2.8,2.2-5,5-5h50c2.8,0,5,2.2,5,5v30C61,38.8,58.8,41,56,41z"/>
	<path class="st1" d="M10.8,16.7l-1.9,2.6h10.6c0.5,0,0.5,0.2,0.3,0.6c-0.3,0.4-0.7,1-1,1.4c-0.1,0.2-0.4,0.5,0.4,0.5h4.3l1.3-1.7
		c0.8-1.1,0.1-3.3-2.8-3.3L10.8,16.7L10.8,16.7z M8.1,25.3L12,20h4.9c0.5,0,0.5,0.2,0.3,0.6l-1,1.3c-0.1,0.2-0.4,0.5,0.4,0.5h6.5
		c-0.5,0.7-2.3,2.9-5.4,2.9H8.1z M30.5,22.4l-2.1,2.9h-5.6l2.1-2.9H30.5z M39,21.8H25.4l3.7-5.1h5.6l-2.1,2.9H35l2.1-2.9h5.6
		L39,21.8z M38.6,22.4l-2.1,2.9h-5.6l2.1-2.9H38.6z M50.5,16.7l-3.7,5.1h-5.9l3.7-5.1H50.5z M40.4,22.4c0,0-0.4,0.6-0.6,0.8
		c-0.7,0.9-0.1,2.1,2.2,2.1h9l2.1-2.9L40.4,22.4L40.4,22.4z"/>
</g>
<g id="ups">
	<path class="st2" d="M126,41H76c-2.8,0-5-2.2-5-5V6c0-2.8,2.2-5,5-5h50c2.8,0,5,2.2,5,5v30C131,38.8,128.8,41,126,41z"/>
	<path class="st3" d="M110.9,18.7c1.4,0.8,1.9,1.4,2,2.4c0,1.1-0.7,1.7-1.9,1.7c-1,0-2.2-0.5-3-1.3v2.9c1,0.5,2.2,1,3.4,1
		c3.1,0,4.5-2.2,4.5-4.2c0.1-1.8-0.5-3.3-3.1-4.8c-1.2-0.7-2.1-1.2-2.1-2.3s1-1.5,1.8-1.5c1.1,0,2.2,0.6,2.8,1.3v-2.7
		c-0.5-0.5-1.7-1.1-3.4-1c-2.1,0.1-4.3,1.5-4.3,4.1C107.8,16,108.4,17.2,110.9,18.7 M101.4,10.3c-1.7,0-3.1,0.4-4.3,1.1v20.5h3.1
		v-6.6c0.3,0.1,0.7,0.2,1.4,0.2c3.5,0,5.5-3.2,5.5-7.7C107.2,13.1,105.1,10.3,101.4,10.3z M101.1,22.7c-0.5,0-0.8-0.1-1-0.2v-9.6
		h0.1c0.3-0.1,0.7-0.3,1.1-0.3c1.8,0,2.5,1.4,2.5,5C103.8,21,102.9,22.7,101.1,22.7z M90.7,25.4c1.9,0,3.5-0.5,4.7-1.3V10.4h-3.2
		v11.9c-0.4,0.3-0.8,0.4-1.4,0.4c-1.4,0-1.6-1.4-1.6-2.2V10.4H86v9.9C86,23.7,87.6,25.4,90.7,25.4"/>
</g>
</svg>
